<svg width="143" height="35" viewBox="0 0 143 35" fill="none" xmlns="http://www.w3.org/2000/svg">
<path fill-rule="evenodd" clip-rule="evenodd" d="M114.837 21.8559C113.069 20.7391 113.547 18.2865 114.995 17.1577C114.451 20.8613 119.035 19.2869 120.858 18.6392C120.926 18.6153 121.007 18.5889 121.097 18.5596C121.738 18.3509 122.837 17.9929 122.731 17.3057C122.427 15.3202 120.066 15.6374 117.927 15.9248C116.761 16.0815 115.66 16.2293 114.995 15.9905C108.772 13.7571 111.816 5.77854 115.029 2.38538C117.989 -0.740558 123.403 0.0798435 127.149 0.704771C128.437 0.919687 130.546 1.59671 131.608 2.16787C133.581 3.22885 134.235 4.5217 134.366 5.94895C134.45 6.86658 133.707 7.93898 133.154 8.73741C133.082 8.84174 133.013 8.94139 132.949 9.03541C131.928 10.5476 130.666 11.7961 129.401 13.0468C128.538 13.9005 127.674 14.7553 126.885 15.6957C126.966 15.6318 127.047 15.568 127.128 15.5042C129.967 13.2706 132.743 11.0855 134.808 8.06074C136.424 5.69358 137.26 4.11023 134.866 2.2127C135.444 1.92404 136.006 1.6677 136.657 1.59671C141.144 1.10824 138.837 6.79756 137.698 8.71052C137.622 8.83859 137.526 8.97646 137.426 9.12139C137.066 9.63989 136.644 10.2487 136.82 10.8223C137.127 11.8231 138.396 12.575 139.619 13.2993C141.023 14.1312 142.366 14.9267 142.119 16.0211C141.834 17.2862 140.599 18.3499 139.602 19.2084C139.485 19.3091 139.372 19.407 139.263 19.5021C137.589 20.9694 135.824 22.1503 134.034 23.3473C133.174 23.9225 132.309 24.5014 131.445 25.1175C132.378 24.7979 133.282 24.3936 134.183 23.9902C135.108 23.5761 136.032 23.1628 136.983 22.8433C136.957 24.6538 136.09 25.6637 135.13 26.7805C134.715 27.2644 134.282 27.7685 133.893 28.3664C133.507 28.9595 133.213 29.6679 132.919 30.3766C132.139 32.2603 131.358 34.1451 128.839 33.8659C124.708 33.4078 124.775 28.1127 124.814 24.9822C124.817 24.7428 124.82 24.5162 124.821 24.3053C124.822 24.0036 124.645 23.6425 124.468 23.2807C124.234 22.8043 124 22.3267 124.171 21.9822C124.464 21.3938 125.556 20.8667 126.5 20.4107C126.979 20.1797 127.419 19.967 127.699 19.7739C129.793 18.3279 131.348 16.5334 132.911 14.5586C132.326 14.9801 131.743 15.4094 131.16 15.8392C127.368 18.6349 123.549 21.4499 118.741 22.2759C117.551 22.4804 115.892 22.5223 114.837 21.8559ZM112.457 10.7145C112.594 6.46439 115.591 -1.24622 126.478 1.9126C122.409 1.25452 113.908 2.09358 112.457 10.7145Z" fill="url(#paint0_linear_3_965)"/>
<path d="M5.81454 20.856C6.52481 20.856 7.10867 20.9583 7.56613 21.1629C8.02358 21.3556 8.52318 21.6445 9.06491 22.0297C9.2214 22.1501 9.34179 22.2103 9.42606 22.2103C9.65479 22.2103 9.80526 21.8431 9.87749 21.1088H10.2928C10.2447 21.8913 10.2206 23.2757 10.2206 25.262H9.80526C9.69692 24.624 9.58255 24.1003 9.46217 23.691C9.34179 23.2697 9.15519 22.9025 8.90239 22.5895C8.55327 22.1561 8.09581 21.813 7.53001 21.5602C6.97624 21.3074 6.39238 21.181 5.77843 21.181C4.98389 21.181 4.28567 21.4398 3.68375 21.9575C3.08183 22.4751 2.61835 23.2155 2.29331 24.1786C1.96828 25.1296 1.80576 26.2431 1.80576 27.5192C1.80576 29.6861 2.14885 31.2752 2.83504 32.2864C3.53327 33.2856 4.62274 33.7852 6.10346 33.7852C6.82576 33.7852 7.45176 33.5986 7.98145 33.2254C8.19814 33.0809 8.33658 32.9425 8.39677 32.8101C8.469 32.6656 8.50512 32.473 8.50512 32.2322V30.4987C8.50512 29.9931 8.45697 29.6259 8.36066 29.3972C8.26435 29.1685 8.09581 29.012 7.85505 28.9277C7.61428 28.8434 7.22303 28.7893 6.6813 28.7652V28.404C7.3073 28.4401 8.15601 28.4582 9.22742 28.4582C10.046 28.4582 10.672 28.4401 11.1054 28.404V28.7652C10.8285 28.7893 10.6239 28.8374 10.4915 28.9096C10.3711 28.9819 10.2868 29.1203 10.2386 29.325C10.2025 29.5296 10.1845 29.8607 10.1845 30.3181V33.8935H9.82332C9.81128 33.6528 9.76313 33.424 9.67886 33.2073C9.59459 32.9786 9.48023 32.8642 9.33577 32.8642C9.26354 32.8642 9.19131 32.8823 9.11908 32.9184C9.04685 32.9545 8.92044 33.0388 8.73987 33.1712C8.31852 33.4963 7.87912 33.737 7.42167 33.8935C6.97624 34.0621 6.47665 34.1463 5.92289 34.1463C4.68293 34.1463 3.61753 33.8935 2.72669 33.3879C1.84789 32.8703 1.17374 32.1299 0.704246 31.1668C0.234748 30.2038 0 29.0541 0 27.7178C0 26.3455 0.246787 25.1416 0.740361 24.1063C1.24597 23.059 1.93818 22.2584 2.81698 21.7047C3.69578 21.1389 4.69497 20.856 5.81454 20.856Z" fill="#5C5C5C"/>
<path d="M18.421 20.856C19.5646 20.856 20.5638 21.1148 21.4185 21.6324C22.2853 22.1501 22.9534 22.9025 23.4229 23.8896C23.9045 24.8647 24.1452 26.0325 24.1452 27.3928C24.1452 28.717 23.8985 29.8908 23.4049 30.914C22.9233 31.9373 22.2432 32.7318 21.3644 33.2976C20.4976 33.8634 19.5105 34.1463 18.4029 34.1463C17.2593 34.1463 16.2541 33.8875 15.3873 33.3699C14.5326 32.8522 13.8645 32.1058 13.3829 31.1307C12.9134 30.1436 12.6787 28.9698 12.6787 27.6095C12.6787 26.2853 12.9194 25.1115 13.401 24.0883C13.8946 23.065 14.5747 22.2705 15.4415 21.7047C16.3203 21.1389 17.3135 20.856 18.421 20.856ZM18.3488 21.181C17.5783 21.181 16.8981 21.4519 16.3082 21.9936C15.7304 22.5233 15.279 23.2697 14.9539 24.2327C14.6409 25.1958 14.4844 26.2973 14.4844 27.5373C14.4844 28.7893 14.659 29.8908 15.0081 30.8418C15.3693 31.7928 15.8508 32.5272 16.4527 33.0448C17.0546 33.5625 17.7288 33.8213 18.4752 33.8213C19.2456 33.8213 19.9198 33.5565 20.4976 33.0268C21.0875 32.485 21.5389 31.7326 21.8519 30.7696C22.177 29.8065 22.3395 28.705 22.3395 27.465C22.3395 26.213 22.1589 25.1115 21.7978 24.1605C21.4486 23.2095 20.9731 22.4751 20.3712 21.9575C19.7693 21.4398 19.0951 21.181 18.3488 21.181Z" fill="#5C5C5C"/>
<path d="M31.8957 20.856C32.606 20.856 33.1899 20.9583 33.6473 21.1629C34.1048 21.3556 34.6044 21.6445 35.1461 22.0297C35.3026 22.1501 35.423 22.2103 35.5073 22.2103C35.736 22.2103 35.8865 21.8431 35.9587 21.1088H36.374C36.3259 21.8913 36.3018 23.2757 36.3018 25.262H35.8865C35.7781 24.624 35.6638 24.1003 35.5434 23.691C35.423 23.2697 35.2364 22.9025 34.9836 22.5895C34.6345 22.1561 34.177 21.813 33.6112 21.5602C33.0574 21.3074 32.4736 21.181 31.8596 21.181C31.0651 21.181 30.3669 21.4398 29.765 21.9575C29.163 22.4751 28.6996 23.2155 28.3745 24.1786C28.0495 25.1296 27.887 26.2431 27.887 27.5192C27.887 29.6861 28.2301 31.2752 28.9162 32.2864C29.6145 33.2856 30.7039 33.7852 32.1847 33.7852C32.907 33.7852 33.533 33.5986 34.0627 33.2254C34.2794 33.0809 34.4178 32.9425 34.478 32.8101C34.5502 32.6656 34.5863 32.473 34.5863 32.2322V30.4987C34.5863 29.9931 34.5382 29.6259 34.4419 29.3972C34.3456 29.1685 34.177 29.012 33.9363 28.9277C33.6955 28.8434 33.3042 28.7893 32.7625 28.7652V28.404C33.3885 28.4401 34.2372 28.4582 35.3086 28.4582C36.1272 28.4582 36.7532 28.4401 37.1866 28.404V28.7652C36.9097 28.7893 36.7051 28.8374 36.5727 28.9096C36.4523 28.9819 36.368 29.1203 36.3199 29.325C36.2837 29.5296 36.2657 29.8607 36.2657 30.3181V33.8935H35.9045C35.8925 33.6528 35.8443 33.424 35.7601 33.2073C35.6758 32.9786 35.5614 32.8642 35.417 32.8642C35.3447 32.8642 35.2725 32.8823 35.2003 32.9184C35.1281 32.9545 35.0017 33.0388 34.8211 33.1712C34.3997 33.4963 33.9603 33.737 33.5029 33.8935C33.0575 34.0621 32.5579 34.1463 32.0041 34.1463C30.7641 34.1463 29.6987 33.8935 28.8079 33.3879C27.9291 32.8703 27.255 32.1299 26.7855 31.1668C26.316 30.2038 26.0812 29.0541 26.0812 27.7178C26.0812 26.3455 26.328 25.1416 26.8216 24.1063C27.3272 23.059 28.0194 22.2584 28.8982 21.7047C29.777 21.1389 30.7762 20.856 31.8957 20.856Z" fill="#5C5C5C"/>
<path d="M47.8067 31.5822C47.8067 32.2683 47.8489 33.0388 47.9331 33.8935C47.1145 33.8574 45.7361 33.8394 43.7979 33.8394C41.4866 33.8394 39.741 33.8574 38.5612 33.8935V33.5324C38.9946 33.5083 39.3076 33.4601 39.5002 33.3879C39.7049 33.3157 39.8433 33.1772 39.9156 32.9726C39.9878 32.7679 40.0239 32.4369 40.0239 31.9794V23.0229C40.0239 22.5654 39.9878 22.2344 39.9156 22.0297C39.8433 21.825 39.7049 21.6866 39.5002 21.6144C39.3076 21.5421 38.9946 21.494 38.5612 21.4699V21.1088C39.741 21.1449 41.4866 21.1629 43.7979 21.1629C45.5676 21.1629 46.8256 21.1449 47.572 21.1088C47.4877 21.9033 47.4456 22.6136 47.4456 23.2396C47.4456 23.7091 47.4636 24.0822 47.4998 24.3591H47.0844C47.0002 23.5766 46.8918 22.9988 46.7594 22.6256C46.627 22.2404 46.4043 21.9635 46.0913 21.795C45.7783 21.6144 45.3027 21.5241 44.6647 21.5241H43.1659C42.7325 21.5241 42.4135 21.5602 42.2089 21.6324C42.0163 21.6926 41.8838 21.825 41.8116 22.0297C41.7394 22.2344 41.7033 22.5654 41.7033 23.0229V27.2845H42.8951C43.3164 27.2845 43.6414 27.1881 43.8702 26.9955C44.0989 26.7909 44.2494 26.5561 44.3216 26.2913C44.4059 26.0144 44.4721 25.6713 44.5203 25.262L44.5744 24.9009H44.9897C44.9536 25.4065 44.9356 25.9723 44.9356 26.5983V27.465C44.9356 28.079 44.9717 28.9337 45.0439 30.0292H44.6286C44.6166 29.9449 44.5804 29.656 44.5203 29.1624C44.4601 28.6568 44.2915 28.2776 44.0146 28.0248C43.7498 27.772 43.3766 27.6456 42.8951 27.6456H41.7033V31.9794C41.7033 32.4369 41.7394 32.7679 41.8116 32.9726C41.8838 33.1772 42.0163 33.3157 42.2089 33.3879C42.4135 33.4481 42.7325 33.4782 43.1659 33.4782H44.4841C45.2305 33.4782 45.7963 33.3819 46.1815 33.1893C46.5788 32.9846 46.8677 32.6656 47.0483 32.2322C47.2289 31.7868 47.3613 31.1367 47.4456 30.282H47.8609C47.8248 30.607 47.8067 31.0404 47.8067 31.5822Z" fill="#5C5C5C"/>
<path d="M63.5428 32.3767C63.8317 33.1231 64.247 33.5083 64.7888 33.5324V33.8935C64.3072 33.8574 63.6632 33.8394 62.8566 33.8394C61.8213 33.8394 61.0508 33.8574 60.5452 33.8935V33.5324C61.0027 33.5083 61.3277 33.4541 61.5203 33.3699C61.725 33.2736 61.8273 33.105 61.8273 32.8642C61.8273 32.6596 61.7551 32.3767 61.6106 32.0155L60.5091 29.0541H56.1392L55.3988 30.9682C55.1581 31.6183 55.0377 32.1118 55.0377 32.4489C55.0377 32.8221 55.1641 33.093 55.4169 33.2615C55.6817 33.4301 56.079 33.5203 56.6087 33.5324V33.8935C55.9225 33.8574 55.2303 33.8394 54.5321 33.8394C53.9903 33.8394 53.5389 33.8574 53.1777 33.8935V33.5324C53.7797 33.3879 54.2552 32.8642 54.6043 31.9614L58.8478 21.0185H59.1367L63.5428 32.3767ZM60.3647 28.6929L58.3422 23.2937L56.2836 28.6929H60.3647Z" fill="url(#paint1_linear_3_965)"/>
<path d="M74.0948 21.1088C74.0105 21.9635 73.9684 22.7339 73.9684 23.4201C73.9684 24.0221 73.9864 24.5156 74.0225 24.9009H73.6072C73.5109 23.9739 73.3905 23.2877 73.2461 22.8423C73.1016 22.3848 72.8488 22.0538 72.4876 21.8491C72.1265 21.6324 71.5727 21.5241 70.8263 21.5241H69.6887C69.2553 21.5241 68.9363 21.5602 68.7317 21.6324C68.539 21.6926 68.4066 21.825 68.3344 22.0297C68.2622 22.2344 68.226 22.5654 68.226 23.0229V27.465H69.5443C69.9656 27.465 70.2906 27.3687 70.5194 27.1761C70.7481 26.9715 70.8986 26.7367 70.9708 26.4719C71.0551 26.195 71.1213 25.8519 71.1694 25.4426L71.2236 25.0814H71.6389C71.6028 25.587 71.5848 26.1528 71.5848 26.7788V27.6456C71.5848 28.2596 71.6209 29.1143 71.6931 30.2098H71.2778C71.2657 30.1255 71.2296 29.8366 71.1694 29.343C71.1092 28.8374 70.9407 28.4582 70.6638 28.2054C70.399 27.9526 70.0258 27.8262 69.5443 27.8262H68.226V31.9794C68.226 32.4369 68.2742 32.7679 68.3705 32.9726C68.4668 33.1772 68.6354 33.3157 68.8761 33.3879C69.1169 33.4601 69.5081 33.5083 70.0499 33.5324V33.8935C69.4239 33.8574 68.5391 33.8394 67.3954 33.8394C66.3601 33.8394 65.5896 33.8574 65.084 33.8935V33.5324C65.5174 33.5083 65.8304 33.4601 66.023 33.3879C66.2277 33.3157 66.3661 33.1772 66.4383 32.9726C66.5106 32.7679 66.5467 32.4369 66.5467 31.9794V23.0229C66.5467 22.5654 66.5106 22.2344 66.4383 22.0297C66.3661 21.825 66.2277 21.6866 66.023 21.6144C65.8304 21.5421 65.5174 21.494 65.084 21.4699V21.1088C66.2638 21.1449 68.0094 21.1629 70.3207 21.1629C72.0904 21.1629 73.3484 21.1449 74.0948 21.1088Z" fill="url(#paint2_linear_3_965)"/>
<path d="M86.5244 32.9906C86.2476 33.4 85.9707 33.6949 85.6938 33.8755C85.4169 34.056 85.0497 34.1463 84.5923 34.1463C84.0987 34.1463 83.6894 34.0019 83.3644 33.713C83.0514 33.424 82.8166 32.9184 82.6601 32.1961L82.2629 30.3904C82.1184 29.7644 81.98 29.2828 81.8475 28.9458C81.7271 28.6087 81.5406 28.3378 81.2877 28.1332C81.0349 27.9285 80.6798 27.8262 80.2224 27.8262H78.5069V31.9794C78.5069 32.4369 78.543 32.7679 78.6152 32.9726C78.6875 33.1772 78.8199 33.3157 79.0125 33.3879C79.2171 33.4601 79.5362 33.5083 79.9695 33.5324V33.8935C79.4158 33.8574 78.6513 33.8394 77.6762 33.8394C76.6409 33.8394 75.8705 33.8574 75.3649 33.8935V33.5324C75.7982 33.5083 76.1112 33.4601 76.3039 33.3879C76.5085 33.3157 76.6469 33.1772 76.7192 32.9726C76.7914 32.7679 76.8275 32.4369 76.8275 31.9794V23.0229C76.8275 22.5654 76.7914 22.2344 76.7192 22.0297C76.6469 21.825 76.5085 21.6866 76.3039 21.6144C76.1112 21.5421 75.7982 21.494 75.3649 21.4699V21.1088C75.8705 21.1449 76.6048 21.1629 77.5679 21.1629L79.5181 21.1449C79.7468 21.1328 80.0057 21.1268 80.2946 21.1268C81.691 21.1268 82.7625 21.4218 83.5088 22.0116C84.2673 22.5895 84.6465 23.3419 84.6465 24.2688C84.6465 24.7383 84.5321 25.2139 84.3034 25.6954C84.0867 26.1649 83.7135 26.5922 83.1838 26.9775C82.6661 27.3507 81.986 27.6035 81.1433 27.7359L81.36 27.772C82.1545 27.9044 82.7324 28.1452 83.0935 28.4943C83.4547 28.8434 83.7195 29.3972 83.888 30.1556L84.3395 31.9975C84.4599 32.5512 84.5863 32.9365 84.7187 33.1532C84.8511 33.3699 85.0317 33.4782 85.2604 33.4782C85.4651 33.4782 85.6336 33.424 85.766 33.3157C85.9105 33.2073 86.073 33.0328 86.2536 32.792L86.5244 32.9906ZM79.8431 21.4699C79.47 21.4699 79.187 21.512 78.9944 21.5963C78.8139 21.6806 78.6875 21.8311 78.6152 22.0478C78.543 22.2644 78.5069 22.5895 78.5069 23.0229V27.465H79.7167C80.9085 27.465 81.7271 27.2002 82.1726 26.6705C82.618 26.1408 82.8407 25.4065 82.8407 24.4675C82.8407 23.4803 82.606 22.7339 82.1365 22.2283C81.667 21.7227 80.9025 21.4699 79.8431 21.4699Z" fill="url(#paint3_linear_3_965)"/>
<path d="M91.6788 21.4699C91.2454 21.494 90.9264 21.5421 90.7217 21.6144C90.5291 21.6866 90.3967 21.825 90.3244 22.0297C90.2522 22.2344 90.2161 22.5654 90.2161 23.0229V31.9794C90.2161 32.4369 90.2522 32.7679 90.3244 32.9726C90.3967 33.1772 90.5291 33.3157 90.7217 33.3879C90.9264 33.4601 91.2454 33.5083 91.6788 33.5324V33.8935C91.125 33.8574 90.3606 33.8394 89.3854 33.8394C88.3501 33.8394 87.5797 33.8574 87.0741 33.8935V33.5324C87.5075 33.5083 87.8205 33.4601 88.0131 33.3879C88.2177 33.3157 88.3562 33.1772 88.4284 32.9726C88.5006 32.7679 88.5367 32.4369 88.5367 31.9794V23.0229C88.5367 22.5654 88.5006 22.2344 88.4284 22.0297C88.3562 21.825 88.2177 21.6866 88.0131 21.6144C87.8205 21.5421 87.5075 21.494 87.0741 21.4699V21.1088C87.5797 21.1449 88.3501 21.1629 89.3854 21.1629C90.3485 21.1629 91.113 21.1449 91.6788 21.1088V21.4699Z" fill="url(#paint4_linear_3_965)"/>
<path d="M98.9931 20.856C99.7154 20.856 100.329 20.9583 100.835 21.1629C101.341 21.3676 101.834 21.6565 102.316 22.0297C102.448 22.138 102.562 22.1922 102.659 22.1922C102.9 22.1922 103.056 21.8311 103.128 21.1088H103.544C103.495 21.8913 103.471 23.2757 103.471 25.262H103.056C102.924 24.4795 102.803 23.9197 102.695 23.5827C102.587 23.2335 102.406 22.9025 102.153 22.5895C101.792 22.12 101.329 21.7709 100.763 21.5421C100.209 21.3014 99.607 21.181 98.957 21.181C98.1745 21.181 97.4883 21.4398 96.8984 21.9575C96.3205 22.4751 95.8691 23.2155 95.5441 24.1786C95.219 25.1296 95.0565 26.2492 95.0565 27.5373C95.0565 28.8494 95.2311 29.975 95.5802 30.914C95.9293 31.853 96.4108 32.5693 97.0248 33.0629C97.6508 33.5444 98.355 33.7852 99.1375 33.7852C99.7394 33.7852 100.323 33.6708 100.889 33.4421C101.455 33.2134 101.9 32.8703 102.225 32.4128C102.466 32.0757 102.641 31.7146 102.749 31.3294C102.857 30.9441 102.96 30.3542 103.056 29.5597H103.471C103.471 31.6303 103.495 33.0749 103.544 33.8935H103.128C103.092 33.5083 103.038 33.2374 102.966 33.0809C102.906 32.9124 102.815 32.8281 102.695 32.8281C102.599 32.8281 102.472 32.8763 102.316 32.9726C101.774 33.3578 101.256 33.6528 100.763 33.8574C100.269 34.05 99.6732 34.1463 98.975 34.1463C97.8314 34.1463 96.8261 33.8875 95.9594 33.3699C95.1047 32.8522 94.4365 32.1058 93.955 31.1307C93.4855 30.1436 93.2508 28.9698 93.2508 27.6095C93.2508 26.2853 93.4915 25.1115 93.9731 24.0883C94.4666 23.065 95.1468 22.2705 96.0136 21.7047C96.8924 21.1389 97.8855 20.856 98.9931 20.856Z" fill="url(#paint5_linear_3_965)"/>
<path d="M114.965 32.3767C115.253 33.1231 115.669 33.5083 116.211 33.5324V33.8935C115.729 33.8574 115.085 33.8394 114.278 33.8394C113.243 33.8394 112.473 33.8574 111.967 33.8935V33.5324C112.424 33.5083 112.75 33.4541 112.942 33.3699C113.147 33.2736 113.249 33.105 113.249 32.8642C113.249 32.6596 113.177 32.3767 113.032 32.0155L111.931 29.0541H107.561L106.821 30.9682C106.58 31.6183 106.459 32.1118 106.459 32.4489C106.459 32.8221 106.586 33.093 106.839 33.2615C107.104 33.4301 107.501 33.5203 108.03 33.5324V33.8935C107.344 33.8574 106.652 33.8394 105.954 33.8394C105.412 33.8394 104.961 33.8574 104.6 33.8935V33.5324C105.201 33.3879 105.677 32.8642 106.026 31.9614L110.27 21.0185H110.559L114.965 32.3767ZM111.786 28.6929L109.764 23.2937L107.705 28.6929H111.786Z" fill="url(#paint6_linear_3_965)"/>
<defs>
<linearGradient id="paint0_linear_3_965" x1="141.749" y1="0.935931" x2="106.733" y2="10.3369" gradientUnits="userSpaceOnUse">
<stop stop-color="#FFC000"/>
<stop offset="1" stop-color="#FF8A00"/>
</linearGradient>
<linearGradient id="paint1_linear_3_965" x1="115.391" y1="21.1774" x2="89.3546" y2="57.5734" gradientUnits="userSpaceOnUse">
<stop stop-color="#FFC000"/>
<stop offset="1" stop-color="#FF8A00"/>
</linearGradient>
<linearGradient id="paint2_linear_3_965" x1="115.391" y1="21.1774" x2="89.3546" y2="57.5734" gradientUnits="userSpaceOnUse">
<stop stop-color="#FFC000"/>
<stop offset="1" stop-color="#FF8A00"/>
</linearGradient>
<linearGradient id="paint3_linear_3_965" x1="115.391" y1="21.1774" x2="89.3546" y2="57.5734" gradientUnits="userSpaceOnUse">
<stop stop-color="#FFC000"/>
<stop offset="1" stop-color="#FF8A00"/>
</linearGradient>
<linearGradient id="paint4_linear_3_965" x1="115.391" y1="21.1774" x2="89.3546" y2="57.5734" gradientUnits="userSpaceOnUse">
<stop stop-color="#FFC000"/>
<stop offset="1" stop-color="#FF8A00"/>
</linearGradient>
<linearGradient id="paint5_linear_3_965" x1="115.391" y1="21.1774" x2="89.3546" y2="57.5734" gradientUnits="userSpaceOnUse">
<stop stop-color="#FFC000"/>
<stop offset="1" stop-color="#FF8A00"/>
</linearGradient>
<linearGradient id="paint6_linear_3_965" x1="115.391" y1="21.1774" x2="89.3546" y2="57.5734" gradientUnits="userSpaceOnUse">
<stop stop-color="#FFC000"/>
<stop offset="1" stop-color="#FF8A00"/>
</linearGradient>
</defs>
</svg>
