<svg width="114" height="21" viewBox="0 0 114 21" fill="none" xmlns="http://www.w3.org/2000/svg">
<path d="M10.1394 21C15.7393 21 20.2788 16.299 20.2788 10.5C20.2788 4.70101 15.7393 0 10.1394 0C4.53957 0 0 4.70101 0 10.5C0 16.299 4.53957 21 10.1394 21Z" fill="#272EAE"/>
<path d="M9.15049 16.4595V11.3824H7.39893V9.36491H9.15049V7.77528C9.15049 6.04819 10.2375 5.10815 11.8246 5.10815C12.5851 5.10815 13.2382 5.16358 13.4278 5.18797V6.99266H12.3271C11.4638 6.99266 11.2971 7.39173 11.2971 7.97481V9.36491H13.2451L12.9779 11.3824H11.2971V16.4595" fill="white"/>
<mask id="mask0_3_925" style="mask-type:alpha" maskUnits="userSpaceOnUse" x="7" y="5" width="7" height="12">
<path d="M9.15049 16.4595V11.3824H7.39893V9.36491H9.15049V7.77528C9.15049 6.04819 10.2375 5.10815 11.8246 5.10815C12.5851 5.10815 13.2382 5.16358 13.4278 5.18797V6.99266H12.3271C11.4638 6.99266 11.2971 7.39173 11.2971 7.97481V9.36491H13.2451L12.9779 11.3824H11.2971V16.4595" fill="white"/>
</mask>
<g mask="url(#mask0_3_925)">
</g>
<path d="M41.3797 21C46.9795 21 51.5191 16.299 51.5191 10.5C51.5191 4.70101 46.9795 0 41.3797 0C35.7798 0 31.2402 4.70101 31.2402 10.5C31.2402 16.299 35.7798 21 41.3797 21Z" fill="#1590D8"/>
<path d="M46.0081 8.4717C46.0151 8.57253 46.0151 8.67339 46.0151 8.77422C46.0151 11.8497 43.7546 15.3934 39.6232 15.3934C38.3503 15.3934 37.168 15.0117 36.1733 14.3491C36.3542 14.3707 36.528 14.3779 36.7159 14.3779C37.7661 14.3779 38.7329 14.0105 39.5049 13.3839C38.5173 13.3623 37.6896 12.6925 37.4044 11.7705C37.5435 11.7921 37.6826 11.8065 37.8287 11.8065C38.0304 11.8065 38.2321 11.7777 38.4199 11.7273C37.3905 11.5112 36.6185 10.5749 36.6185 9.44406V9.41526C36.9175 9.58813 37.2653 9.69616 37.6339 9.71055C37.0288 9.29279 36.6324 8.57974 36.6324 7.77304C36.6324 7.34089 36.7436 6.94474 36.9384 6.59902C38.0443 8.01073 39.7066 8.93265 41.5706 9.0335C41.5358 8.86064 41.515 8.68059 41.515 8.50052C41.515 7.21844 42.5165 6.17407 43.7615 6.17407C44.4084 6.17407 44.9926 6.45497 45.403 6.90874C45.9107 6.80791 46.3976 6.61343 46.8288 6.34694C46.6619 6.88715 46.3072 7.34091 45.8412 7.629C46.2933 7.5786 46.7314 7.44893 47.1348 7.26888C46.8289 7.72983 46.4463 8.14036 46.0081 8.4717Z" fill="white"/>
<mask id="mask1_3_925" style="mask-type:alpha" maskUnits="userSpaceOnUse" x="36" y="6" width="12" height="10">
<path d="M46.0081 8.4717C46.0151 8.57253 46.0151 8.67339 46.0151 8.77422C46.0151 11.8497 43.7546 15.3934 39.6232 15.3934C38.3503 15.3934 37.168 15.0117 36.1733 14.3491C36.3542 14.3707 36.528 14.3779 36.7159 14.3779C37.7661 14.3779 38.7329 14.0105 39.5049 13.3839C38.5173 13.3623 37.6896 12.6925 37.4044 11.7705C37.5435 11.7921 37.6826 11.8065 37.8287 11.8065C38.0304 11.8065 38.2321 11.7777 38.4199 11.7273C37.3905 11.5112 36.6185 10.5749 36.6185 9.44406V9.41526C36.9175 9.58813 37.2653 9.69616 37.6339 9.71055C37.0288 9.29279 36.6324 8.57974 36.6324 7.77304C36.6324 7.34089 36.7436 6.94474 36.9384 6.59902C38.0443 8.01073 39.7066 8.93265 41.5706 9.0335C41.5358 8.86064 41.515 8.68059 41.515 8.50052C41.515 7.21844 42.5165 6.17407 43.7615 6.17407C44.4084 6.17407 44.9926 6.45497 45.403 6.90874C45.9107 6.80791 46.3976 6.61343 46.8288 6.34694C46.6619 6.88715 46.3072 7.34091 45.8412 7.629C46.2933 7.5786 46.7314 7.44893 47.1348 7.26888C46.8289 7.72983 46.4463 8.14036 46.0081 8.4717Z" fill="white"/>
</mask>
<g mask="url(#mask1_3_925)">
</g>
<path d="M72.6199 21C78.2197 21 82.7593 16.299 82.7593 10.5C82.7593 4.70101 78.2197 0 72.6199 0C67.02 0 62.4805 4.70101 62.4805 10.5C62.4805 16.299 67.02 21 72.6199 21Z" fill="#D0021B"/>
<path fill-rule="evenodd" clip-rule="evenodd" d="M76.4066 7.18182C76.8537 7.30795 77.2059 7.6796 77.3254 8.15151C77.5426 9.00685 77.5426 10.7915 77.5426 10.7915C77.5426 10.7915 77.5426 12.5761 77.3254 13.4314C77.2059 13.9033 76.8537 14.2595 76.4066 14.3856C75.596 14.6148 72.346 14.6148 72.346 14.6148C72.346 14.6148 69.096 14.6148 68.2855 14.3856C67.8383 14.2595 67.4861 13.9033 67.3666 13.4314C67.1494 12.5761 67.1494 10.7915 67.1494 10.7915C67.1494 10.7915 67.1494 9.00685 67.3666 8.15151C67.4861 7.6796 67.8383 7.30797 68.2855 7.18182C69.096 6.95264 72.346 6.95264 72.346 6.95264C72.346 6.95264 75.5961 6.95264 76.4066 7.18182ZM71.2828 9.17105V12.4116L73.9992 10.7914L71.2828 9.17105Z" fill="white"/>
<mask id="mask2_3_925" style="mask-type:alpha" maskUnits="userSpaceOnUse" x="67" y="6" width="11" height="9">
<path fill-rule="evenodd" clip-rule="evenodd" d="M76.4066 7.18182C76.8537 7.30795 77.2059 7.6796 77.3254 8.15151C77.5426 9.00685 77.5426 10.7915 77.5426 10.7915C77.5426 10.7915 77.5426 12.5761 77.3254 13.4314C77.2059 13.9033 76.8537 14.2595 76.4066 14.3856C75.596 14.6148 72.346 14.6148 72.346 14.6148C72.346 14.6148 69.096 14.6148 68.2855 14.3856C67.8383 14.2595 67.4861 13.9033 67.3666 13.4314C67.1494 12.5761 67.1494 10.7915 67.1494 10.7915C67.1494 10.7915 67.1494 9.00685 67.3666 8.15151C67.4861 7.6796 67.8383 7.30797 68.2855 7.18182C69.096 6.95264 72.346 6.95264 72.346 6.95264C72.346 6.95264 75.5961 6.95264 76.4066 7.18182ZM71.2828 9.17105V12.4116L73.9992 10.7914L71.2828 9.17105Z" fill="white"/>
</mask>
<g mask="url(#mask2_3_925)">
</g>
<path d="M103.861 21C109.46 21 114 16.299 114 10.5C114 4.70101 109.46 0 103.861 0C98.2608 0 93.7212 4.70101 93.7212 10.5C93.7212 16.299 98.2608 21 103.861 21Z" fill="#F53E6A"/>
<path fill-rule="evenodd" clip-rule="evenodd" d="M104.135 4.71802C101.207 4.71802 98.8252 7.18454 98.8252 10.2163C98.8252 13.2481 101.207 15.7146 104.135 15.7146C107.062 15.7146 109.444 13.2481 109.444 10.2163C109.444 7.18454 107.062 4.71802 104.135 4.71802ZM107.645 7.25354C108.277 8.0527 108.659 9.07058 108.669 10.1791C108.52 10.1463 107.02 9.83138 105.511 10.0279C105.388 9.71661 105.272 9.44276 105.113 9.1053C106.79 8.39635 107.55 7.38747 107.645 7.25354ZM104.764 8.40699C106.377 7.78104 107.06 6.83083 107.141 6.71051C106.026 5.68581 104.51 5.29864 103.072 5.65765C103.197 5.83147 104.021 6.99303 104.764 8.40699ZM102.207 5.9732C102.326 6.143 103.137 7.30601 103.888 8.6893C101.767 9.27267 99.8981 9.26427 99.6953 9.2615C99.9894 7.80416 100.938 6.59293 102.207 5.9732ZM99.6019 10.0799C99.6005 10.1276 99.5996 10.1754 99.5996 10.2234C99.5996 11.4297 100.041 12.531 100.765 13.3636C101.501 12.0604 102.991 10.6869 104.631 10.2086C104.517 9.94176 104.393 9.67467 104.263 9.41155C101.998 10.1134 99.8003 10.0841 99.6019 10.0799ZM101.351 13.9286C101.825 12.9257 103.11 11.6312 104.939 10.9853C105.575 12.6987 105.839 14.1347 105.906 14.5467C104.448 15.19 102.694 15.0135 101.351 13.9286ZM105.788 10.7683C106.381 12.4562 106.622 13.8311 106.669 14.1168C107.686 13.4043 108.41 12.2758 108.613 10.969C108.457 10.9183 107.209 10.5327 105.788 10.7683Z" fill="white"/>
<mask id="mask3_3_925" style="mask-type:alpha" maskUnits="userSpaceOnUse" x="98" y="4" width="12" height="12">
<path fill-rule="evenodd" clip-rule="evenodd" d="M104.135 4.71802C101.207 4.71802 98.8252 7.18454 98.8252 10.2163C98.8252 13.2481 101.207 15.7146 104.135 15.7146C107.062 15.7146 109.444 13.2481 109.444 10.2163C109.444 7.18454 107.062 4.71802 104.135 4.71802ZM107.645 7.25354C108.277 8.0527 108.659 9.07058 108.669 10.1791C108.52 10.1463 107.02 9.83138 105.511 10.0279C105.388 9.71661 105.272 9.44276 105.113 9.1053C106.79 8.39635 107.55 7.38747 107.645 7.25354ZM104.764 8.40699C106.377 7.78104 107.06 6.83083 107.141 6.71051C106.026 5.68581 104.51 5.29864 103.072 5.65765C103.197 5.83147 104.021 6.99303 104.764 8.40699ZM102.207 5.9732C102.326 6.143 103.137 7.30601 103.888 8.6893C101.767 9.27267 99.8981 9.26427 99.6953 9.2615C99.9894 7.80416 100.938 6.59293 102.207 5.9732ZM99.6019 10.0799C99.6005 10.1276 99.5996 10.1754 99.5996 10.2234C99.5996 11.4297 100.041 12.531 100.765 13.3636C101.501 12.0604 102.991 10.6869 104.631 10.2086C104.517 9.94176 104.393 9.67467 104.263 9.41155C101.998 10.1134 99.8003 10.0841 99.6019 10.0799ZM101.351 13.9286C101.825 12.9257 103.11 11.6312 104.939 10.9853C105.575 12.6987 105.839 14.1347 105.906 14.5467C104.448 15.19 102.694 15.0135 101.351 13.9286ZM105.788 10.7683C106.381 12.4562 106.622 13.8311 106.669 14.1168C107.686 13.4043 108.41 12.2758 108.613 10.969C108.457 10.9183 107.209 10.5327 105.788 10.7683Z" fill="white"/>
</mask>
<g mask="url(#mask3_3_925)">
</g>
</svg>
